HIERARCHY
ROOT reference
{
  OFFSET 0 0 0
  CHANNELS 6 Xposition Yposition Zposition Zrotation Xrotation Yrotation
  JOINT Hips
  {
    OFFSET 387.421 88.6843 214.036
    CHANNELS 3 Zrotation Xrotation Yrotation
    JOINT RightUpLeg
    {
      OFFSET -9.26407 -1.54033 -0.0169218
      CHANNELS 3 Zrotation Xrotation Yrotation
      JOINT RightLeg
      {
        OFFSET 0.0262756 -41.889 0.0389421
        CHANNELS 3 Zrotation Xrotation Yrotation
        JOINT RightFoot
        {
          OFFSET -0.025595 -42.7244 0.117519
          CHANNELS 3 Zrotation Xrotation Yrotation
          End Site
          {
            OFFSET 0 -7.69 17.5
          }
        }
      }
    }
    JOINT LeftUpLeg
    {
      OFFSET 9.28488 -1.63184 0.00456132
      CHANNELS 3 Zrotation Xrotation Yrotation
      JOINT LeftLeg
      {
        OFFSET -0.00133996 -41.8929 0.0117795
        CHANNELS 3 Zrotation Xrotation Yrotation
        JOINT LeftFoot
        {
          OFFSET 0.253805 -40.8902 0.809143
          CHANNELS 3 Zrotation Xrotation Yrotation
          End Site
          {
            OFFSET 0 -7.69 17.5
          }
        }
      }
    }
    JOINT Spine
    {
      OFFSET 0.04218 14.2944 0.0529257
      CHANNELS 3 Zrotation Xrotation Yrotation
      JOINT Spine1
      {
        OFFSET 0.022284 9.72228 0.00997239
        CHANNELS 3 Zrotation Xrotation Yrotation
        JOINT Spine2
        {
          OFFSET 0.0397412 10.1199 -0.0103674
          CHANNELS 3 Zrotation Xrotation Yrotation
          JOINT Spine3
          {
            OFFSET 0.0389473 9.71765 -0.00772733
            CHANNELS 3 Zrotation Xrotation Yrotation
            JOINT Neck
            {
              OFFSET 0.0437972 10.3765 0.0320322
              CHANNELS 3 Zrotation Xrotation Yrotation
              JOINT Head
              {
                OFFSET 0.0431994 9.46781 0.0291763
                CHANNELS 3 Zrotation Xrotation Yrotation
                End Site
                {
                  OFFSET 0 15.95 0
                }
              }
            }
            JOINT RightShoulder
            {
              OFFSET -3.17206 6.93005 0.0018626
              CHANNELS 3 Zrotation Xrotation Yrotation
              JOINT RightArm
              {
                OFFSET -12.781 0.0116363 0.0199633
                CHANNELS 3 Zrotation Xrotation Yrotation
                JOINT RightForeArm
                {
                  OFFSET -26.5135 -0.0113607 0.0486864
                  CHANNELS 3 Zrotation Xrotation Yrotation
                  JOINT RightHand
                  {
                    OFFSET -25.9857 -0.0984063 0.163753
                    CHANNELS 3 Zrotation Xrotation Yrotation
                    JOINT RightHandThumb1
                    {
                      OFFSET -2.48905 0.190105 3.12053
                      CHANNELS 3 Zrotation Xrotation Yrotation
                      JOINT RightHandThumb2
                      {
                        OFFSET -3.68274 0 0
                        CHANNELS 3 Zrotation Xrotation Yrotation
                        JOINT RightHandThumb3
                        {
                          OFFSET -2.55832 0 0
                          CHANNELS 3 Zrotation Xrotation Yrotation
                          End Site
                          {
                            OFFSET -2.194 0 0
                          }
                        }
                      }
                    }
                    JOINT RightInHandIndex
                    {
                      OFFSET -3.22368 0.508421 1.97842
                      CHANNELS 3 Zrotation Xrotation Yrotation
                      JOINT RightHandIndex1
                      {
                        OFFSET -5.21684 -0.091368 0.999158
                        CHANNELS 3 Zrotation Xrotation Yrotation
                        JOINT RightHandIndex2
                        {
                          OFFSET -3.61937 0 0
                          CHANNELS 3 Zrotation Xrotation Yrotation
                          JOINT RightHandIndex3
                          {
                            OFFSET -2.0521 0 0
                            CHANNELS 3 Zrotation Xrotation Yrotation
                            End Site
                            {
                              OFFSET -1.805 0 0
                            }
                          }
                        }
                      }
                    }
                    JOINT RightInHandMiddle
                    {
                      OFFSET -3.38211 0.517263 0.756737
                      CHANNELS 3 Zrotation Xrotation Yrotation
                      JOINT RightHandMiddle1
                      {
                        OFFSET -5.17411 -0.084 0.313895
                        CHANNELS 3 Zrotation Xrotation Yrotation
                        JOINT RightHandMiddle2
                        {
                          OFFSET -3.94947 0 0
                          CHANNELS 3 Zrotation Xrotation Yrotation
                          JOINT RightHandMiddle3
                          {
                            OFFSET -2.47579 0 0
                            CHANNELS 3 Zrotation Xrotation Yrotation
                            End Site
                            {
                              OFFSET -1.975 0 0
                            }
                          }
                        }
                      }
                    }
                    JOINT RightInHandRing
                    {
                      OFFSET -3.36516 0.537895 -0.128947
                      CHANNELS 3 Zrotation Xrotation Yrotation
                      JOINT RightHandRing1
                      {
                        OFFSET -4.63474 -0.022105 -0.478947
                        CHANNELS 3 Zrotation Xrotation Yrotation
                        JOINT RightHandRing2
                        {
                          OFFSET -3.44238 0 0
                          CHANNELS 3 Zrotation Xrotation Yrotation
                          JOINT RightHandRing3
                          {
                            OFFSET -2.3881 0 0
                            CHANNELS 3 Zrotation Xrotation Yrotation
                            End Site
                            {
                              OFFSET -1.857 0 0
                            }
                          }
                        }
                      }
                    }
                    JOINT RightInHandPinky
                    {
                      OFFSET -3.16105 0.469368 -1.20179
                      CHANNELS 3 Zrotation Xrotation Yrotation
                      JOINT RightHandPinky1
                      {
                        OFFSET -4.14105 -0.022105 -1.09053
                        CHANNELS 3 Zrotation Xrotation Yrotation
                        JOINT RightHandPinky2
                        {
                          OFFSET -2.75653 0 0
                          CHANNELS 3 Zrotation Xrotation Yrotation
                          JOINT RightHandPinky3
                          {
                            OFFSET -1.74189 0 0
                            CHANNELS 3 Zrotation Xrotation Yrotation
                            End Site
                            {
                              OFFSET -1.645 0 0
                            }
                          }
                        }
                      }
                    }
                  }
                }
              }
            }
            JOINT LeftShoulder
            {
              OFFSET 3.23848 6.90919 -0.0119143
              CHANNELS 3 Zrotation Xrotation Yrotation
              JOINT LeftArm
              {
                OFFSET 12.8241 -0.0554782 -0.0520121
                CHANNELS 3 Zrotation Xrotation Yrotation
                JOINT LeftForeArm
                {
                  OFFSET 26.4865 -0.0658343 -0.0244543
                  CHANNELS 3 Zrotation Xrotation Yrotation
                  JOINT LeftHand
                  {
                    OFFSET 25.985 -0.0475988 -0.0124738
                    CHANNELS 3 Zrotation Xrotation Yrotation
                    JOINT LeftHandThumb1
                    {
                      OFFSET 2.48905 0.190105 3.12053
                      CHANNELS 3 Zrotation Xrotation Yrotation
                      JOINT LeftHandThumb2
                      {
                        OFFSET 3.68274 0 0
                        CHANNELS 3 Zrotation Xrotation Yrotation
                        JOINT LeftHandThumb3
                        {
                          OFFSET 2.55832 0 0
                          CHANNELS 3 Zrotation Xrotation Yrotation
                          End Site
                          {
                            OFFSET 2.194 0 0
                          }
                        }
                      }
                    }
                    JOINT LeftInHandIndex
                    {
                      OFFSET 3.22368 0.508421 1.97842
                      CHANNELS 3 Zrotation Xrotation Yrotation
                      JOINT LeftHandIndex1
                      {
                        OFFSET 5.21684 -0.091368 0.999158
                        CHANNELS 3 Zrotation Xrotation Yrotation
                        JOINT LeftHandIndex2
                        {
                          OFFSET 3.61937 0 0
                          CHANNELS 3 Zrotation Xrotation Yrotation
                          JOINT LeftHandIndex3
                          {
                            OFFSET 2.0521 0 0
                            CHANNELS 3 Zrotation Xrotation Yrotation
                            End Site
                            {
                              OFFSET 1.805 0 0
                            }
                          }
                        }
                      }
                    }
                    JOINT LeftInHandMiddle
                    {
                      OFFSET 3.38211 0.517263 0.756737
                      CHANNELS 3 Zrotation Xrotation Yrotation
                      JOINT LeftHandMiddle1
                      {
                        OFFSET 5.17411 -0.084 0.313895
                        CHANNELS 3 Zrotation Xrotation Yrotation
                        JOINT LeftHandMiddle2
                        {
                          OFFSET 3.94947 0 0
                          CHANNELS 3 Zrotation Xrotation Yrotation
                          JOINT LeftHandMiddle3
                          {
                            OFFSET 2.47579 0 0
                            CHANNELS 3 Zrotation Xrotation Yrotation
                            End Site
                            {
                              OFFSET 1.975 0 0
                            }
                          }
                        }
                      }
                    }
                    JOINT LeftInHandRing
                    {
                      OFFSET 3.36516 0.537895 -0.128947
                      CHANNELS 3 Zrotation Xrotation Yrotation
                      JOINT LeftHandRing1
                      {
                        OFFSET 4.63474 -0.022105 -0.478947
                        CHANNELS 3 Zrotation Xrotation Yrotation
                        JOINT LeftHandRing2
                        {
                          OFFSET 3.44238 0 0
                          CHANNELS 3 Zrotation Xrotation Yrotation
                          JOINT LeftHandRing3
                          {
                            OFFSET 2.3881 0 0
                            CHANNELS 3 Zrotation Xrotation Yrotation
                            End Site
                            {
                              OFFSET 1.857 0 0
                            }
                          }
                        }
                      }
                    }
                    JOINT LeftInHandPinky
                    {
                      OFFSET 3.16105 0.469368 -1.20179
                      CHANNELS 3 Zrotation Xrotation Yrotation
                      JOINT LeftHandPinky1
                      {
                        OFFSET 4.14105 -0.022105 -1.09053
                        CHANNELS 3 Zrotation Xrotation Yrotation
                        JOINT LeftHandPinky2
                        {
                          OFFSET 2.75653 0 0
                          CHANNELS 3 Zrotation Xrotation Yrotation
                          JOINT LeftHandPinky3
                          {
                            OFFSET 1.74189 0 0
                            CHANNELS 3 Zrotation Xrotation Yrotation
                            End Site
                            {
                              OFFSET 1.645 0 0
                            }
                          }
                        }
                      }
                    }
                  }
                }
              }
            }
          }
        }
      }
    }
  }
}
MOTION
Frames: 2
Frame Time: 0.00833333
3.000000000000000000e+02 0.000000000000000000e+00 0.000000000000000000e+00 0.000000000000000000e+00 0.000000000000000000e+00 0.000000000000000000e+00 7.943807223525567451e-02 6.503768197223487590e-03 3.803904850880708288e-01 -1.532840026799839606e-01 -2.781427965313966744e-01 -3.309342740688118734e-01 1.928157523811028368e-02 -1.210497481982549493e-02 -1.452982490112097458e-01 -4.850949285929786331e-02 4.297505868552593811e-02 1.283837551304645996e-01 -1.262463340855053961e-01 -3.797993547660237779e-01 -4.443743993634099998e-01 -1.476944583265310355e-02 6.421305715978835879e-04 1.760214249257260055e-01 1.553836647757539206e-02 3.686282794992711692e-02 1.726873373340591811e-03 8.168344382290065181e-03 -1.273378746888336605e-02 -2.502985008212791906e-01 3.710589332957223672e-03 -5.043358473452047921e-03 -6.289086438882940389e-02 6.163282160282675982e-03 -9.513725682667570696e-03 -1.010720017921747232e-01 8.470252862757544606e-04 5.764535798590573817e-05 1.227808487195885786e-03 2.275587663187711267e-03 -7.097200650148647498e-04 4.206321108799237346e-02 1.675004935495653935e-02 9.025732816761344174e-03 -5.399693066081049167e-03 1.532236684503717611e-02 1.537452784679882271e-02 1.309605983258387181e-02 -1.433495082210706761e-01 3.343905969510113652e-02 -1.549677035826304006e-01 6.356392484308902302e-02 -4.358551637761802142e-03 4.716203072298323119e-03 -1.142669278441809126e-03 -5.390937792732835021e-01 7.643988537985789422e-02 0.000000000000000000e+00 0.000000000000000000e+00 0.000000000000000000e+00 2.769818665918211567e-15 2.679318648281149954e-15 0.000000000000000000e+00 2.296009330951261069e-15 1.825300142129598520e-15 0.000000000000000000e+00 -5.913065040623631586e-16 -2.056578471784982255e-15 1.349104394514098334e-15 0.000000000000000000e+00 0.000000000000000000e+00 0.000000000000000000e+00 0.000000000000000000e+00 -3.755063011847550769e-16 1.216783974134624613e-15 0.000000000000000000e+00 -2.412519836649936932e-16 2.581785241019943666e-15 -5.913065040623631586e-16 -2.056578471784982255e-15 1.349104394514098334e-15 0.000000000000000000e+00 -2.696786675775294463e-15 1.721833925538852838e-15 0.000000000000000000e+00 2.741268467292643918e-15 5.356447287531177748e-16 0.000000000000000000e+00 -7.921207093109834560e-16 4.066003318428659775e-16 -5.913065040623631586e-16 -2.056578471784982255e-15 1.349104394514098334e-15 0.000000000000000000e+00 0.000000000000000000e+00 0.000000000000000000e+00 0.000000000000000000e+00 -4.602142881543598299e-17 -1.270402663136351224e-15 0.000000000000000000e+00 3.843814579270820760e-16 -4.605202490700000372e-16 -5.913065040623631586e-16 -2.056578471784982255e-15 1.349104394514098334e-15 0.000000000000000000e+00 0.000000000000000000e+00 0.000000000000000000e+00 0.000000000000000000e+00 1.469028046232005774e-15 -1.008137083128799111e-16 0.000000000000000000e+00 1.459745052394853921e-15 -5.520144964852566132e-16 -1.028838955000182520e-01 -5.228775761506047198e-02 -2.001600274924147382e-01 3.377760530967394148e-02 -1.371336814901633339e-01 -7.836983521474479020e-02 -5.962189208285939568e-02 -1.058659988045322492e-01 -1.176200486295209818e-01 2.281130919482386027e-02 -3.767523169862784793e-01 1.110020241157801069e+00 0.000000000000000000e+00 0.000000000000000000e+00 0.000000000000000000e+00 -1.267050328391986413e-15 -2.395038659234335755e-15 0.000000000000000000e+00 -2.692331755633927625e-15 -2.511245645197315735e-15 0.000000000000000000e+00 -2.412212441557949563e-16 8.119516878533395527e-17 -2.852255014592408918e-16 0.000000000000000000e+00 0.000000000000000000e+00 0.000000000000000000e+00 0.000000000000000000e+00 -1.005562509972642359e-15 5.825317472051963711e-16 0.000000000000000000e+00 3.482502122965421105e-17 3.141440193404024133e-16 -2.412212441557949563e-16 8.119516878533395527e-17 -2.852255014592408918e-16 0.000000000000000000e+00 9.461997280305946705e-16 -3.142270642824608632e-16 0.000000000000000000e+00 -4.078918257291618094e-16 -1.152200667276112642e-16 0.000000000000000000e+00 -8.137190418683217127e-16 -1.250375215065105322e-16 -2.412212441557949563e-16 8.119516878533395527e-17 -2.852255014592408918e-16 0.000000000000000000e+00 0.000000000000000000e+00 0.000000000000000000e+00 0.000000000000000000e+00 8.505577456674921621e-16 -7.059846092184968438e-16 0.000000000000000000e+00 8.946923828831938335e-16 -3.499428753737251688e-16 -2.412212441557949563e-16 8.119516878533395527e-17 -2.852255014592408918e-16 0.000000000000000000e+00 0.000000000000000000e+00 0.000000000000000000e+00 0.000000000000000000e+00 -3.044472915438137010e-16 -9.057500833470580936e-16 0.000000000000000000e+00 -4.744455192346232535e-16 1.877375635198968564e-16
3.000000000000000000e+02 0.000000000000000000e+00 0.000000000000000000e+00 0.000000000000000000e+00 0.000000000000000000e+00 0.000000000000000000e+00 -3.625204229124788079e-03 9.665025825496435796e-03 1.298862608091922721e-01 -7.892903608871937315e-02 -7.450299873709166631e-02 -9.492698182095742065e-02 2.560092846234723885e-02 -1.151295684074136409e-03 -1.249310233958956101e-01 -2.683530725280706616e-02 2.937047575553717108e-02 7.531491773537250800e-02 -7.921211806054238858e-02 -1.394426562868544828e-01 -2.451969440899064434e-01 -5.196259787761699223e-02 -1.986229975769494664e-03 1.511717748468788258e-01 8.131332428332960910e-03 5.388746027633951365e-03 2.444336433752445931e-03 -5.911908742290208907e-03 8.367862454457943716e-03 -8.300486696503563133e-02 -1.178958534861585710e-03 1.026097397970025761e-03 -2.098672157492070811e-02 -2.014783125217411552e-03 2.598071893599666459e-04 -3.357518754194624422e-02 8.551147558270619882e-04 1.791978684968897851e-03 5.217941026734050549e-04 -2.099990815308422105e-05 1.149600053844936944e-02 -5.936889186579705560e-03 1.195020870948195445e-02 1.750415202996984457e-02 1.355377604183882929e-02 -3.529150984638500937e-03 1.846225421901593472e-02 4.205571811428183288e-02 -1.725275693452165693e-01 -6.312073435040469437e-03 -1.898101530338896781e-01 7.877307482477198530e-02 2.832214503220762368e-03 1.223144749333983719e-02 -6.177099002201066891e-02 -9.820809858353630739e-01 5.034011162983111076e-02 0.000000000000000000e+00 0.000000000000000000e+00 0.000000000000000000e+00 1.300956567827337999e-15 1.618325021082829448e-15 0.000000000000000000e+00 6.155057908281449808e-16 9.059004703229966348e-16 0.000000000000000000e+00 1.507619236999749350e-16 -9.046426541746169634e-16 3.635364910783376817e-16 0.000000000000000000e+00 0.000000000000000000e+00 0.000000000000000000e+00 0.000000000000000000e+00 -1.794738221500163620e-17 1.590478348137866876e-15 0.000000000000000000e+00 6.183143147416562332e-16 -4.423933571668543397e-16 1.507619236999749350e-16 -9.046426541746169634e-16 3.635364910783376817e-16 0.000000000000000000e+00 -1.036935621967415196e-15 5.913793385450746227e-16 0.000000000000000000e+00 -1.139238761168472335e-16 2.033869967081595039e-16 0.000000000000000000e+00 -1.006372192240061675e-15 1.365357812876490733e-15 1.507619236999749350e-16 -9.046426541746169634e-16 3.635364910783376817e-16 0.000000000000000000e+00 0.000000000000000000e+00 0.000000000000000000e+00 0.000000000000000000e+00 2.100365262023930988e-16 2.180459546460695201e-16 0.000000000000000000e+00 7.047901324729591655e-17 3.558837924830790781e-17 1.507619236999749350e-16 -9.046426541746169634e-16 3.635364910783376817e-16 0.000000000000000000e+00 0.000000000000000000e+00 0.000000000000000000e+00 0.000000000000000000e+00 1.664610845546849118e-15 -2.699220833904317025e-16 0.000000000000000000e+00 2.391074916701654543e-15 -5.033074404759011033e-16 1.553017433158251047e-02 1.173952634275199011e-02 2.972208296781420761e-02 1.141737812959298937e-01 -2.268193693654103060e-01 -3.569925202938945552e-01 -7.365330772004834159e-02 -5.629009360293187741e-02 4.044816284388461775e-02 2.012961451942310229e-02 -3.131543608723588983e-03 3.581128164036800898e-02 0.000000000000000000e+00 0.000000000000000000e+00 0.000000000000000000e+00 1.883090665088029260e-15 -9.381281285869740674e-16 0.000000000000000000e+00 1.234555717168639835e-15 -9.991183623954339738e-16 0.000000000000000000e+00 6.124881774621317695e-17 7.318327872878480797e-17 -1.604698620942773462e-16 0.000000000000000000e+00 0.000000000000000000e+00 0.000000000000000000e+00 0.000000000000000000e+00 -9.621481065775885039e-16 7.349815863569558066e-16 0.000000000000000000e+00 -4.185931245248755290e-17 1.277656368892917500e-17 6.124881774621317695e-17 7.318327872878480797e-17 -1.604698620942773462e-16 0.000000000000000000e+00 7.090215115739984423e-16 7.872196591799184330e-17 0.000000000000000000e+00 -1.921612314350550595e-16 -5.462050503445093216e-16 0.000000000000000000e+00 -3.775192510638730083e-16 -3.727794847408238507e-16 6.124881774621317695e-17 7.318327872878480797e-17 -1.604698620942773462e-16 0.000000000000000000e+00 0.000000000000000000e+00 0.000000000000000000e+00 0.000000000000000000e+00 5.159436501075991401e-16 -1.490748632310130810e-16 0.000000000000000000e+00 1.892108441259715195e-16 -7.408589530982886655e-17 6.124881774621317695e-17 7.318327872878480797e-17 -1.604698620942773462e-16 0.000000000000000000e+00 0.000000000000000000e+00 0.000000000000000000e+00 0.000000000000000000e+00 -5.393500605525073971e-16 -6.326193695138169657e-16 0.000000000000000000e+00 -1.663808581360470080e-16 -7.334754305499675178e-17
